<svg width="646" height="176" viewBox="0 0 646 176" fill="none" xmlns="http://www.w3.org/2000/svg">
<path d="M10.2235 65.4202L8.60219 51.3771L82.3849 42.859L84.0061 56.9021L55.4232 60.202L64.4783 138.636L47.8614 140.554L38.8063 62.1204L10.2235 65.4202Z" fill="#E80000"/>
<path d="M112.235 133.612L104.989 40.8033L165.351 36.0909L166.451 50.1844L122.902 53.5843L124.869 78.7803L165.292 75.6246L166.392 89.7181L125.969 92.8738L127.947 118.206L171.859 114.778L172.959 128.871L112.235 133.612Z" fill="#E80000"/>
<path d="M194.485 127.629L190.442 34.6256L207.289 33.8931L210.719 112.773L251.68 110.992L252.294 125.115L194.485 127.629Z" fill="#E80000"/>
<path d="M271.895 124.614L271.058 31.5265L331.601 30.9822L331.728 45.118L288.048 45.5107L288.275 70.7824L328.819 70.4179L328.946 84.5537L288.402 84.9182L288.631 110.326L332.674 109.93L332.801 124.066L271.895 124.614Z" fill="#E80000"/>
<path d="M354.355 124.297L356.766 31.2371L416.382 32.7814L416.016 46.9131L373.258 45.8054L372.603 71.0697L411.272 72.0714L410.906 86.203L372.237 85.2013L371.213 124.733L354.355 124.297Z" fill="#E80000"/>
<path d="M433.795 126.758L439.351 33.8331L456.184 34.8396L451.472 113.653L492.399 116.1L491.555 130.212L433.795 126.758Z" fill="#E80000"/>
<path d="M535.95 40.598L528.029 133.351L511.227 131.917L519.148 39.1632L535.95 40.598Z" fill="#E80000"/>
<path d="M576.238 44.4341L592.724 80.6371L593.447 80.7199L617.784 49.1946L636.887 51.3833L603.093 94.3612L626.741 143.921L607.323 141.696L590.585 105.693L589.863 105.61L565.415 136.894L546.087 134.679L580.604 91.7843L557.046 42.235L576.238 44.4341Z" fill="#E80000"/>
</svg>
